<?xml version="1.0" encoding="UTF-8" standalone="no"?>
<!DOCTYPE svg PUBLIC "-//W3C//DTD SVG 1.1//EN" "http://www.w3.org/Graphics/SVG/1.1/DTD/svg11.dtd">
<svg width="100%" height="100%" viewBox="0 0 1000 976" version="1.1" xmlns="http://www.w3.org/2000/svg" xmlns:xlink="http://www.w3.org/1999/xlink" xml:space="preserve" xmlns:serif="http://www.serif.com/" style="fill-rule:evenodd;clip-rule:evenodd;stroke-linecap:round;stroke-linejoin:round;stroke-miterlimit:1.5;">
    <g id="Layer1" transform="matrix(1,0,0,1,-700,-1012)">
        <g id="Layer3">
        </g>
        <g id="Layer8">
        </g>
        <g id="Layer7" opacity="0.75">
            <g transform="matrix(0.444293,0,0,0.296691,664.046,1035.5)">
                <path d="M1917.57,1711.54C1913.02,1718.52 1925.78,1702.71 1946.05,1684.7C1952.7,1678.79 1959.48,1673.02 1966.28,1667.28C1968.8,1665.15 1991.28,1644.06 1993.77,1641.9C1994.71,1641.08 1977.69,1657.74 1976.61,1658.37C1948.64,1674.61 1896.19,1722.13 1865.22,1733.97C1821.93,1750.53 1847.34,1740.75 1804.91,1761.38C1733.85,1795.93 1719.26,1801.87 1641.7,1821.08C1603.09,1830.64 1529.97,1855.46 1388.23,1866.88C1161.6,1885.15 1004.18,1883.82 785.004,1817.4C694.958,1790.12 488.214,1741.94 440.375,1656.1C392.473,1570.15 483.46,1462.85 554.179,1422.22C734.398,1318.69 958.499,1281.73 1169.7,1266.96C1248.03,1261.48 1420.74,1236.25 1375.73,1351.46C1361.17,1388.72 1338.62,1413.81 1321.72,1449.97C1346.06,1421.66 1427.77,1352.01 1433.52,1319.39C1439.52,1285.32 1395.46,1260.1 1369.33,1253.2C1290.86,1232.47 1198.89,1244.1 1118.89,1247.02C1064.47,1249.01 1009.95,1254.6 956.483,1265.05C803.864,1294.88 476.241,1359.21 403.804,1520.83C320.676,1706.31 594.792,1799.65 728.009,1839.49C1009.79,1923.76 1305.39,1925.74 1590.36,1853.51C1696.73,1826.55 1835.2,1787.93 1917.57,1711.54Z" style="fill:rgb(47,63,123);fill-opacity:0.57;"/>
            </g>
            <g transform="matrix(0.444293,0,0,0.296691,664.046,1035.5)">
                <path d="M1107.04,1661.87C1059.02,1676.84 876.545,1758.93 989.035,1818.71C1000.98,1825.06 1013.73,1830.04 1026.72,1833.77C1048.08,1839.91 1070.1,1842.87 1092.28,1843.75C1321.99,1852.88 1593.18,1825.86 1797.12,1720.5C1875.21,1680.14 1998.03,1617.34 1979.77,1509.57C1957.23,1376.46 1740.63,1319.43 1631.26,1279.8C1590.62,1265.08 1549.25,1249.02 1507.54,1237.72C1493.8,1233.99 1479.94,1230.56 1466,1227.67C1461.86,1226.81 1457.71,1226.04 1453.54,1225.33C1450.69,1224.85 1447.77,1224.73 1444.99,1223.96C1323.02,1190 1478.43,1244.26 1496.96,1251.38C1572.18,1280.28 1656.3,1303.46 1734.19,1335.45C1781.69,1354.96 1838.11,1379.47 1878.08,1412.26C1936.49,1460.19 1975.93,1514.89 1929.52,1581.64C1886.15,1644.03 1820.73,1675.92 1755.65,1708.45C1663.6,1754.47 1573.1,1785.49 1423.43,1803.59C1335.01,1814.28 1278.63,1805.15 1215.78,1805.56C1200.66,1805.66 1069.24,1793.63 1014.74,1760.63C983.466,1741.7 1085.15,1684.89 1106.06,1666.03" style="fill:rgb(47,63,123);fill-opacity:0.57;"/>
            </g>
            <g transform="matrix(0.444293,0,0,0.296691,664.046,1035.5)">
                <path d="M1313.91,1451.01C1274.75,1436 1168.83,1428.99 1127.22,1437.31C1037.17,1455.32 970.659,1469.51 998.394,1561.2C1037.29,1689.78 1330.67,1724.14 1448.54,1635.49C1514.49,1585.88 1460.88,1522.06 1408.63,1490.59C1314.76,1434.08 1181.86,1425.45 1084.01,1475.83C1056.18,1490.16 1031.2,1508.61 1025.66,1543.5C1019.18,1584.3 1063.68,1623.06 1093.45,1643.26C1159.2,1687.86 1323.13,1687.76 1384.35,1642.12C1425.64,1611.33 1443.33,1555.21 1400.75,1502.7C1379.46,1476.44 1343.24,1467.63 1313.91,1451.01Z" style="fill:rgb(47,63,123);fill-opacity:0.57;"/>
            </g>
            <g transform="matrix(0.323466,0,0,0.184136,811.508,1211.99)">
                <path d="M1318.17,1456.65C1318.17,1456.65 1161.35,1473.05 1112.53,1647.66C1112.53,1647.66 1298.2,1690.2 1318.17,1456.65Z" style="fill:rgb(223,120,8);stroke:rgb(253,198,51);stroke-opacity:0.97;stroke-width:101.95px;"/>
            </g>
            <g transform="matrix(0.433566,0,0,0.295537,667.943,1029.41)">
                <path d="M753.395,1344.29C650.87,1383 422.095,1572.78 541.12,1676.66C581.692,1712.07 523.747,1681.18 688.895,1750.43C718.555,1762.87 831.28,1785.38 863.222,1789.19C878.825,1791.06 894.493,1793.7 910.211,1794.42C910.616,1794.44 911.734,1794.74 911.427,1794.48C899.381,1784.06 874.822,1779.14 859.987,1773.15C729.189,1720.29 460.636,1673.77 610.95,1473.43C632.352,1444.91 657.005,1419.68 683.761,1396.22C718.357,1365.88 716.675,1375.46 753.395,1344.29Z" style="fill:rgb(47,63,123);fill-opacity:0.57;"/>
            </g>
            <g transform="matrix(-0.389323,0.0278835,0.0465595,0.289895,1602.98,1027.37)">
                <path d="M753.395,1344.29C650.87,1383 358.933,1521.63 477.958,1625.51C518.53,1660.92 499.366,1659.52 664.514,1728.77C694.174,1741.2 831.28,1785.38 863.222,1789.19C878.825,1791.06 894.493,1793.7 910.211,1794.42C910.616,1794.44 911.734,1794.74 911.427,1794.48C899.381,1784.06 874.499,1779.89 859.987,1773.15C697.009,1697.46 411.204,1669.01 601.231,1461.22C623.891,1436.44 647.868,1419.51 671.3,1406.55C712.549,1383.73 716.675,1375.46 753.395,1344.29Z" style="fill:rgb(47,63,123);fill-opacity:0.57;"/>
            </g>
        </g>
        <g id="Layer6">
        </g>
    </g>
</svg>
