<?xml version="1.0" encoding="UTF-8" standalone="no"?>
<!DOCTYPE svg PUBLIC "-//W3C//DTD SVG 1.1//EN" "http://www.w3.org/Graphics/SVG/1.1/DTD/svg11.dtd">
<svg width="100%" height="100%" viewBox="0 0 294 287" version="1.1" xmlns="http://www.w3.org/2000/svg" xmlns:xlink="http://www.w3.org/1999/xlink" xml:space="preserve" xmlns:serif="http://www.serif.com/" style="fill-rule:evenodd;clip-rule:evenodd;stroke-linecap:round;">
    <g id="figure_1">
        <g id="patch_1">
            <rect x="0" y="0" width="293.4" height="286.2" style="fill:none;fill-rule:nonzero;"/>
        </g>
        <g id="axes_1">
            <g id="line2d_1">
                <g transform="matrix(1,0,0,1,129.5,97.644)">
                    <ellipse cx="77.875" cy="53.621" rx="3.003" ry="3.019" style="fill:rgb(115,115,115);"/>
                </g>
                <g transform="matrix(1,0,0,1,-30.6254,41.6619)">
                    <text x="246.143px" y="112.21px" style="font-family:'Futura-Medium', 'Futura', sans-serif;font-weight:500;font-size:8px;fill:rgb(115,115,115);">disc star</text>
                </g>
                <path d="M210.109,140.09L210.04,139.312L209.832,138.566L209.487,137.855L209.005,137.18L208.387,136.543L207.635,135.944L205.735,134.868L203.321,133.96L200.414,133.226L197.038,132.667L193.222,132.278L188.998,132.046L181.979,131.934L168.813,132.076L100.612,133.301L94.925,133.723L91.686,134.167L88.921,134.76L86.652,135.509L84.898,136.414L83.673,137.471L83.262,138.054L82.987,138.671L82.848,139.323L82.847,140.006L82.982,140.721L83.255,141.464L84.209,143.032L85.703,144.693L87.727,146.428L90.266,148.213L93.3,150.014L96.804,151.788L100.748,153.48L105.099,155.038L109.816,156.424L114.857,157.61L120.177,158.579L125.729,159.317L131.464,159.817L137.332,160.072L143.282,160.081L149.262,159.844L155.219,159.365L161.101,158.654L166.857,157.723L172.436,156.596L177.787,155.306L182.864,153.903L189.87,151.694L196.027,149.473L201.222,147.324L205.361,145.303L207.495,144.051L209.109,142.887L210.189,141.821L210.726,140.86L210.789,140.42L210.715,140.008L210.503,139.625L210.154,139.268L209.047,138.635L207.401,138.094L205.231,137.619L201.035,136.959L191.756,135.805L169.428,133.342L146.191,130.957L134.397,129.904L125.812,129.342L120.307,129.152L115.034,129.145L110.038,129.34L105.362,129.744L101.047,130.358L97.129,131.179L93.642,132.202L90.618,133.419L88.083,134.817L86.06,136.384L85.247,137.226L84.568,138.102L84.027,139.012L83.624,139.95L83.359,140.913L83.235,141.898L83.252,142.898L83.409,143.907L83.707,144.919L84.144,145.926L84.719,146.92L85.432,147.896L86.28,148.847L87.261,149.769L89.613,151.508L92.463,153.087L95.786,154.487L99.55,155.693L103.721,156.693L108.262,157.478L113.134,158.043L118.296,158.385L123.702,158.502L129.306,158.4L135.061,158.089L140.916,157.589L149.777,156.561L161.47,154.891L175.328,152.66L189.895,150.079L199.564,148.166L205.293,146.847L208.276,145.974L209.6,145.425L210.375,144.868L210.555,144.576L210.596,144.27L210.497,143.948L209.883,143.245L208.72,142.46L207.019,141.591L203.493,140.137L198.861,138.522L193.212,136.776L186.652,134.938L179.306,133.058L171.314,131.206L162.832,129.496L156.987,128.512L151.052,127.705L145.078,127.106L139.118,126.732L133.225,126.592L127.449,126.692L121.841,127.032L116.448,127.609L111.317,128.418L106.493,129.451L102.017,130.695L97.929,132.136L94.265,133.752L91.058,135.514L88.337,137.379L86.124,139.295L84.438,141.207L83.291,143.073L82.922,143.978L82.69,144.861L82.596,145.717L82.639,146.546L82.818,147.343L83.134,148.109L83.586,148.84L84.171,149.535L84.89,150.193L86.72,151.39L89.059,152.42L91.888,153.277L95.185,153.955L98.922,154.453L103.069,154.775L107.592,154.932L114.998,154.915L125.807,154.612L191.755,152.174L197.577,151.779L200.901,151.401L203.746,150.894L206.087,150.243L207.906,149.443L209.189,148.494L209.627,147.966L209.927,147.402L210.089,146.805L210.112,146.175L209.998,145.513L209.746,144.822L208.831,143.356L207.374,141.792L205.389,140.146L202.891,138.439L199.901,136.695L196.444,134.949L192.55,133.246L188.254,131.64L183.595,130.179L178.615,128.899L173.359,127.825L167.873,126.972L162.205,126.35L156.405,125.967L150.522,125.826L144.607,125.928L138.709,126.272L132.879,126.851L127.168,127.658L121.624,128.679L116.296,129.891L111.231,131.26L106.471,132.742L102.06,134.285L96.175,136.623L91.267,138.905L88.582,140.361L86.395,141.746L84.723,143.046L83.583,144.251L82.983,145.349L82.889,145.855L82.932,146.332L83.114,146.779L83.433,147.196L83.889,147.582L85.211,148.263L87.072,148.831L89.456,149.304L93.972,149.908L103.767,150.876L138.501,153.915L159.313,155.613L167.946,156.174L176.158,156.475L181.318,156.469L186.176,156.272L190.691,155.876L194.824,155.277L198.543,154.479L201.817,153.487L204.618,152.309L206.923,150.956L208.713,149.44L209.409,148.627L209.971,147.779L210.397,146.899L210.687,145.99L210.838,145.055L210.852,144.098L210.726,143.124L210.463,142.137L210.062,141.143L209.523,140.149L208.849,139.163L208.041,138.19L206.028,136.311L203.505,134.555L200.495,132.952L197.025,131.523L193.125,130.284L188.83,129.249L184.177,128.428L179.204,127.829L173.954,127.455L168.47,127.308L162.8,127.388L156.99,127.687L151.091,128.193L145.153,128.878L136.289,130.158L124.819,132.108L111.598,134.623L100.281,137.007L93.014,138.718L87.621,140.203L84.93,141.164L83.816,141.75L83.259,142.319L83.191,142.607L83.264,142.905L83.83,143.539L84.95,144.238L86.611,145.012L90.078,146.31L94.648,147.761L102.295,149.889L111.469,152.166L121.856,154.481L130.23,156.14L138.926,157.597L144.817,158.38L150.726,158.971L156.599,159.348L162.388,159.5L168.043,159.421L173.517,159.109L178.763,158.566L183.736,157.795L188.395,156.804L192.698,155.603L196.608,154.204L200.089,152.624L203.11,150.888L205.642,149.029L207.662,147.093L209.15,145.135L209.691,144.164L210.094,143.206L210.359,142.266L210.487,141.347L210.475,140.453L210.325,139.586L210.038,138.75L209.613,137.947L209.051,137.178L208.355,136.446L207.526,135.753L205.473,134.489L202.911,133.397L199.861,132.487L196.349,131.766L192.402,131.236L188.054,130.896L183.341,130.738L175.678,130.796L164.589,131.234L135.014,132.811L95.341,135.048L90.502,135.595L87.881,136.087L85.77,136.706L84.184,137.462L83.134,138.354L82.812,138.85L82.626,139.379L82.577,139.939L82.665,140.531L82.888,141.151L83.742,142.475L85.13,143.9L87.042,145.412L89.463,146.996L92.373,148.633L95.75,150.299L99.566,151.963L103.79,153.583L108.385,155.106L113.313,156.485L118.53,157.683L123.99,158.673L129.645,159.442L135.447,159.976L141.346,160.269L147.291,160.318L153.231,160.121L159.115,159.681L164.89,159.002L170.508,158.094L175.917,156.971L181.069,155.657L185.917,154.185L190.419,152.604L194.533,150.967L198.224,149.319L201.46,147.694L204.216,146.117L206.468,144.607L208.198,143.181L209.392,141.852L210.04,140.632L210.157,140.066L210.136,139.531L209.976,139.029L209.679,138.558L209.244,138.121L207.965,137.346L206.15,136.703L203.814,136.182L200.975,135.762L195.833,135.245L182.778,134.288L131.95,130.914L120.765,130.345L112.943,130.185L108.084,130.272L103.557,130.541L99.4,131.001L95.648,131.654L92.333,132.498L89.482,133.529L87.121,134.738L85.27,136.115L84.542,136.863L83.947,137.648L83.488,138.468L83.165,139.32L82.98,140.204L82.934,141.115L83.026,142.05L83.257,143.007L83.627,143.98L84.136,144.964L84.782,145.954L86.483,147.925L88.714,149.834L91.457,151.631L94.685,153.281L98.37,154.755L102.478,156.035L106.971,157.106L111.812,157.957L116.957,158.58L122.361,158.97L127.977,159.124L133.758,159.044L139.652,158.736L145.608,158.212L151.574,157.493L160.425,156.133L169.005,154.572L179.733,152.388L189.318,150.238L197.439,148.224L203.824,146.419L207.34,145.233L209.685,144.197L210.572,143.582L210.907,143.006L210.866,142.725L210.687,142.442L209.913,141.855L208.595,141.221L205.627,140.158L201.527,138.954L194.444,137.147L185.738,135.159L175.701,133.068L164.666,130.982L155.959,129.532L147.069,128.326L141.128,127.731L135.236,127.339L129.444,127.168L123.802,127.227L118.359,127.518L113.163,128.042L108.259,128.795L103.689,129.771L99.494,130.96L95.713,132.351L93.988,133.117" style="fill:none;fill-rule:nonzero;stroke:rgb(115,115,115);stroke-width:0.35px;"/>
            </g>
            <g id="line2d_2">
                <g transform="matrix(1,0,0,1,158.84,55.4346)">
                    <ellipse cx="77.875" cy="53.621" rx="3.003" ry="3.019" style="fill:rgb(115,115,115);"/>
                </g>
                <g transform="matrix(1,0,0,1,-1.3818,-5.13442)">
                    <text x="246.143px" y="112.21px" style="font-family:'Futura-Medium', 'Futura', sans-serif;font-weight:500;font-size:8px;fill:rgb(115,115,115);">accreted</text>
                    <text x="246.143px" y="120.448px" style="font-family:'Futura-Medium', 'Futura', sans-serif;font-weight:500;font-size:8px;fill:rgb(115,115,115);">star</text>
                </g>
                <path d="M210.109,143.1L215.222,137.893L219.837,132.805L224.011,127.849L227.79,123.03L231.211,118.348L234.304,113.803L237.092,109.396L239.597,105.125L241.837,100.989L243.827,96.989L245.58,93.123L247.109,89.391L249.003,84.042L250.446,78.991L251.17,75.788L251.711,72.717L252.076,69.778L252.27,66.97L252.299,64.295L252.166,61.751L251.876,59.339L251.434,57.06L250.841,54.915L250.103,52.904L249.222,51.028L248.2,49.288L247.04,47.686L245.745,46.222L244.317,44.898L242.758,43.716L241.069,42.677L239.253,41.784L237.311,41.038L235.244,40.442L233.055,40L230.743,39.712L228.312,39.583L225.761,39.617L223.091,39.816L220.304,40.185L217.401,40.729L214.383,41.452L211.25,42.359L208.003,43.457L204.644,44.753L201.173,46.253L197.592,47.965L193.901,49.898L190.102,52.062L186.198,54.469L182.19,57.131L178.08,60.062L173.873,63.278L169.573,66.798L165.185,70.644L160.718,74.841L156.183,79.42L151.594,84.415L146.973,89.869L142.351,95.836L137.774,102.38L135.524,105.893L133.315,109.58L131.163,113.455L129.089,117.53L127.116,121.819L125.279,126.332L123.616,131.079L122.174,136.061L121.007,141.266L120.16,146.558L119.609,151.692L119.302,156.629L119.192,161.378L119.244,165.948L119.429,170.348L120.119,178.68L121.135,186.445L122.393,193.704L123.835,200.503L125.422,206.882L127.122,212.872L128.912,218.502L130.774,223.793L132.692,228.765L135.652,235.66L138.682,241.922L141.756,247.589L144.856,252.695L147.964,257.266L151.067,261.324L154.153,264.891L157.212,267.981L160.234,270.61L163.21,272.789L165.166,273.997L167.095,275.012L168.997,275.836L170.869,276.472L172.708,276.922L174.513,277.186L176.282,277.266L178.012,277.163L179.702,276.877L181.349,276.41L182.951,275.761L184.506,274.932L186.012,273.92L187.466,272.727L188.865,271.352L190.207,269.793L191.489,268.05L192.709,266.122L193.862,264.007L195.46,260.479L196.888,256.52L198.134,252.12L199.179,247.268L200.006,241.951L200.594,236.154L200.915,229.859L200.939,223.044L200.771,218.2L200.441,213.104L199.933,207.746L199.227,202.114L198.301,196.195L197.127,189.973L195.669,183.43L193.881,176.543L191.703,169.287L189.051,161.63L187.511,157.639L185.804,153.535L183.903,149.312L181.778,144.974L179.398,140.606L176.761,136.349L173.884,132.255L170.794,128.348L167.521,124.649L164.095,121.169L160.55,117.917L156.917,114.891L153.226,112.088L149.5,109.499L145.762,107.113L142.027,104.917L138.308,102.901L134.618,101.051L130.963,99.356L123.783,96.392L116.805,93.935L110.049,91.921L103.526,90.299L97.242,89.026L91.199,88.064L85.395,87.384L79.83,86.958L74.501,86.764L69.405,86.782L64.538,86.995L59.898,87.388L55.481,87.948L51.285,88.663L47.305,89.523L43.541,90.517L39.989,91.637L36.646,92.876L33.511,94.225L30.583,95.68L27.858,97.233L25.336,98.878L23.017,100.612L20.897,102.428L18.978,104.322L17.259,106.289L15.738,108.327L14.416,110.43L13.293,112.594L12.37,114.817L11.646,117.095L11.123,119.424L10.802,121.801L10.683,124.222L10.768,126.685L11.06,129.185L11.559,131.719L12.269,134.284L13.191,136.874L14.328,139.476L15.683,142.074L17.257,144.66L19.053,147.229L21.073,149.775L23.319,152.292L25.796,154.776L28.505,157.219L31.451,159.615L34.638,161.958L38.07,164.238L41.752,166.449L45.69,168.579L49.888,170.618L54.353,172.555L59.091,174.376L64.109,176.065L69.414,177.604L75.013,178.973L80.914,180.148L87.123,181.1L93.646,181.795L100.487,182.194L107.647,182.249L115.12,181.901L118.971,181.554L122.893,181.079L126.883,180.465L130.935,179.7L135.042,178.772L139.193,177.666L143.375,176.37L147.572,174.869L151.765,173.153L155.929,171.211L160.038,169.037L164.063,166.631L167.974,163.997L171.744,161.145L175.349,158.091L178.766,154.854L181.98,151.456L184.978,147.922L187.753,144.299L190.313,140.688L194.878,133.672L198.827,126.941L202.269,120.487L205.282,114.297L207.924,108.36L210.239,102.665L212.262,97.201L214.022,91.962L215.541,86.939L217.41,79.795L218.836,73.103L219.86,66.847L220.519,61.014L220.841,55.59L220.852,50.567L220.571,45.938L220.017,41.694L219.207,37.831L218.154,34.345L217.322,32.229L216.392,30.279L215.366,28.493L214.246,26.873L213.036,25.418L211.739,24.128L210.355,23.003L208.888,22.045L207.341,21.253L205.714,20.63L204.01,20.175L202.231,19.891L200.378,19.778L198.454,19.84L196.46,20.078L194.397,20.493L192.268,21.09L190.074,21.87L187.817,22.838L184.316,24.648L180.683,26.901L176.923,29.612L173.044,32.802L169.054,36.491L164.961,40.705L160.776,45.475L156.512,50.836L153.635,54.76L150.736,58.982L147.823,63.519L144.907,68.391L141.998,73.622L139.113,79.241L136.272,85.281L133.503,91.784L130.846,98.8L128.358,106.393L127.202,110.429L126.125,114.641L125.145,119.041L124.286,123.642L123.581,128.458L123.069,133.502L122.8,138.779L122.831,144.211L123.164,149.519L123.748,154.621L124.535,159.512L125.483,164.196L126.561,168.682L127.741,172.981L129.003,177.104L131.712,184.861L134.592,192.03L137.581,198.671L140.638,204.837L143.732,210.569L146.842,215.903L149.952,220.868L153.049,225.489L156.124,229.787L159.168,233.78L163.665,239.232L168.065,244.079L172.353,248.36L176.52,252.106L180.557,255.343L184.457,258.095L188.213,260.381L191.82,262.218L195.272,263.622L197.484,264.322L199.624,264.838L201.689,265.173L203.678,265.329L205.589,265.309L207.421,265.115L209.172,264.748L210.84,264.211L212.423,263.505L213.919,262.63L215.327,261.589L216.644,260.381L217.867,259.007L218.996,257.469L220.025,255.765L220.954,253.896L221.779,251.862L222.497,249.662L223.104,247.296L223.597,244.763L224.113,240.649L224.348,236.152L224.283,231.268L223.901,225.989L223.176,220.308L222.082,214.213L220.585,207.693L219.345,203.103L217.894,198.313L216.217,193.317L214.294,188.109L212.102,182.681L209.613,177.027L206.793,171.136L203.599,164.999L199.974,158.604L195.842,151.942L193.555,148.513L191.1,145.046L188.469,141.607L185.658,138.231L182.667,134.94L179.502,131.756L176.166,128.699L172.671,125.789L169.028,123.047L165.256,120.491L161.372,118.137L157.402,115.997L153.369,114.078L149.297,112.383L145.212,110.909L141.134,109.649L137.082,108.592L133.07,107.729L129.111,107.045L125.214,106.529L121.387,106.168L117.636,105.951L113.964,105.866L110.374,105.904L103.448,106.306L96.864,107.092L90.623,108.203L84.719,109.593L79.144,111.22L73.891,113.052L68.949,115.059L64.31,117.218L59.964,119.506L55.902,121.907L52.116,124.403L48.599,126.981L45.342,129.628L42.34,132.329L39.584,135.06L37.068,137.794L34.784,140.52L32.724,143.233L30.882,145.928L29.252,148.601L27.829,151.249L26.609,153.868L25.588,156.455L24.761,159.007L24.125,161.52L23.677,163.992L23.415,166.42L23.335,168.802L23.437,171.133L23.717,173.412L24.175,175.636L24.808,177.801L25.616,179.905L26.597,181.945L27.751,183.917L29.076,185.819L30.574,187.648L32.242,189.398L34.082,191.068L36.092,192.652L38.274,194.147L40.628,195.549L43.154,196.852L45.854,198.052L48.727,199.143L51.776,200.119L55.001,200.974L58.404,201.701L61.986,202.291L65.749,202.737L69.695,203.029L73.826,203.156L78.145,203.107L82.652,202.868L87.35,202.423L92.241,201.756L97.327,200.846L102.609,199.67L108.086,198.201L113.757,196.406L119.617,194.246L125.659,191.674L131.868,188.634L135.028,186.917L138.219,185.055L141.435,183.038L144.668,180.853L147.908,178.486L151.144,175.924L154.357,173.153L157.528,170.158L160.631,166.928L163.637,163.454L166.513,159.733L169.222,155.768L171.729,151.573L174,147.174L176.016,142.696L177.796,138.31L179.376,134.043L182.045,125.856L184.189,118.106L185.92,110.759L187.312,103.785L188.421,97.158L189.286,90.857L189.941,84.863L190.58,76.412L190.865,68.57L190.845,61.301L190.559,54.574L190.037,48.364L189.306,42.649L188.387,37.413L187.296,32.64L186.05,28.318L184.662,24.436L183.143,20.985L181.505,17.958L179.757,15.35L177.906,13.157L176.62,11.923L175.294,10.871L173.931,10.001L172.533,9.312L171.101,8.805L169.638,8.479L168.145,8.336L166.625,8.376L165.078,8.599L163.508,9.007L161.915,9.602L160.302,10.385L158.67,11.357L157.022,12.522L154.523,14.635L151.999,17.195L149.456,20.215L146.903,23.708L144.349,27.689L141.805,32.179L139.284,37.199L136.798,42.775L134.367,48.94L132.012,55.731L129.761,63.194L128.335,68.571L126.985,74.292L125.728,80.382" style="fill:none;fill-rule:nonzero;stroke:rgb(115,115,115);stroke-width:0.3px;"/>
            </g>
        </g>
    </g>
</svg>
