<?xml version="1.0" standalone="no"?>
<!DOCTYPE svg PUBLIC "-//W3C//DTD SVG 20010904//EN"
 "http://www.w3.org/TR/2001/REC-SVG-20010904/DTD/svg10.dtd">
<svg version="1.0" xmlns="http://www.w3.org/2000/svg"
 width="500.000000pt" height="500.000000pt" viewBox="0 0 500.000000 500.000000"
 preserveAspectRatio="xMidYMid meet">
<metadata>
Created by potrace 1.11, written by Peter Selinger 2001-2013
</metadata>
<g transform="translate(0.000000,500.000000) scale(0.100000,-0.100000)"
fill="#000000" stroke="none">
<path d="M1890 3280 l0 -30 65 0 65 0 0 -215 0 -215 30 0 30 0 0 215 0 215 70
0 70 0 0 30 0 30 -165 0 -165 0 0 -30z"/>
<path d="M2330 3065 l0 -245 150 0 150 0 0 30 0 30 -120 0 -120 0 0 80 0 79
73 3 c70 3 72 4 75 31 l3 27 -75 0 -76 0 0 75 0 75 116 0 115 0 -3 28 -3 27
-142 3 -143 3 0 -246z"/>
<path d="M2740 3065 l0 -245 88 0 c116 0 158 13 207 64 48 49 65 99 65 187 0
115 -59 202 -155 228 -22 6 -77 11 -122 11 l-83 0 0 -245z m222 168 c52 -31
73 -78 73 -163 0 -136 -47 -190 -167 -190 l-68 0 0 185 0 185 66 0 c45 0 75
-6 96 -17z"/>
<path d="M1663 2341 c-122 -31 -184 -192 -137 -351 42 -141 203 -195 305 -103
21 19 39 39 39 44 0 5 -12 14 -27 20 -21 8 -28 7 -35 -6 -13 -22 -62 -45 -98
-45 -83 0 -135 78 -134 200 1 80 14 118 57 158 46 43 143 38 168 -9 9 -18 12
-18 39 -4 27 14 29 18 17 36 -29 48 -124 77 -194 60z"/>
<path d="M500 2095 l0 -245 30 0 30 0 2 166 3 166 69 -165 c38 -92 72 -164 76
-162 3 2 37 76 76 165 l69 161 3 -166 2 -165 30 0 30 0 0 245 0 245 -28 0
c-26 0 -31 -9 -102 -175 -41 -96 -77 -175 -80 -175 -3 0 -39 79 -80 175 -71
167 -76 175 -102 175 l-28 0 0 -245z"/>
<path d="M1191 2318 c-28 -77 -161 -457 -161 -462 0 -3 13 -6 29 -6 26 0 30 6
50 60 l22 60 98 0 98 0 18 -60 c17 -58 20 -60 51 -60 l33 0 -23 63 c-13 34
-52 144 -87 244 -62 178 -65 183 -92 183 -19 0 -30 -7 -36 -22z m78 -188 c17
-52 31 -98 31 -103 0 -4 -34 -7 -76 -7 -57 0 -75 3 -72 13 3 6 20 56 38 109
19 54 37 94 41 90 4 -4 21 -50 38 -102z"/>
<path d="M1980 2095 l0 -245 30 0 30 0 0 81 c0 80 0 82 41 130 22 27 45 47 49
44 5 -3 38 -62 75 -130 65 -123 67 -125 101 -125 33 0 34 1 23 23 -6 12 -45
84 -86 160 l-75 137 58 73 c31 39 62 78 67 85 7 9 1 12 -24 12 -31 0 -41 -9
-124 -115 -49 -63 -93 -114 -97 -115 -5 0 -8 52 -8 115 l0 115 -30 0 -30 0 0
-245z"/>
<path d="M2440 2095 l0 -245 155 0 155 0 0 30 0 30 -125 0 -125 0 0 80 0 79
78 3 c76 3 77 3 80 31 l3 27 -80 0 -81 0 0 75 0 75 115 0 115 0 0 30 0 30
-145 0 -145 0 0 -245z"/>
<path d="M2860 2095 l0 -245 30 0 30 0 0 105 0 105 55 0 55 0 50 -105 c48
-105 49 -105 84 -105 l36 0 -50 100 c-27 55 -50 103 -50 107 0 5 15 15 32 23
71 34 98 134 52 197 -37 51 -76 63 -206 63 l-118 0 0 -245z m250 175 c23 -12
39 -59 33 -94 -9 -44 -37 -56 -135 -56 l-88 0 0 80 0 80 86 0 c47 0 94 -4 104
-10z"/>
<path d="M3330 2095 l0 -245 150 0 150 0 0 30 0 30 -120 0 -120 0 0 80 0 79
73 3 c70 3 72 4 75 31 l3 27 -75 0 -76 0 0 75 0 75 116 0 115 0 -3 28 -3 27
-142 3 -143 3 0 -246z"/>
<path d="M3710 2310 l0 -30 70 0 70 0 0 -215 0 -215 30 0 30 0 0 215 0 215 65
0 65 0 0 30 0 30 -165 0 -165 0 0 -30z"/>
<path d="M4150 2095 l0 -245 30 0 30 0 0 110 0 110 115 0 115 0 0 -110 0 -110
30 0 30 0 0 245 0 245 -30 0 -30 0 0 -105 0 -105 -115 0 -115 0 0 105 0 105
-30 0 -30 0 0 -245z"/>
</g>
</svg>
